# xmcd CD database file
#
# Track frame offsets:
#	150
#	13558
#	42080
#	58826
#	79967
#	90678
#	109204
#	122216
#	135191
#	154114
#	173633
#	183601
#	203783
#	217376
#	235523
#	251620
#	260088
#	276555
#
# Disc length: 3922 seconds
#
# Revision: 0
# Processed by: cddbd v1.5.2PL0 Copyright (c) Steve Scherf et al.
# Submitted via: CDex 1.51
#
DISCID=080f5012
DTITLE=Libby Whittemore - Guilty Pleasures and More
DYEAR=2001
DGENRE=Jazz
TTITLE0=Zing Went The Strings Of My Heart
TTITLE1=Atchison, Topeka and The Santa Fe - Sentimental Journey
TTITLE2=Get Along Without You Now
TTITLE3=Do Ya
TTITLE4=Sign Of The Times
TTITLE5=You Don't Own Me
TTITLE6=Accentuate The Positive
TTITLE7=Hungry For Love
TTITLE8=To Be Loved By You
TTITLE9=To Sir With Love
TTITLE10=My Funny Valentine
TTITLE11=Sacrifice
TTITLE12=You Don't Have To Say You Love Me
TTITLE13=Here's That Rainy Day
TTITLE14=Anyone Who Had A Heart
TTITLE15=Get Happy
TTITLE16=Never Be Another You
TTITLE17=Where The Boys Are
EXTD=YEAR: 2001
EXTT0=
EXTT1=
EXTT2=
EXTT3=
EXTT4=
EXTT5=
EXTT6=
EXTT7=
EXTT8=
EXTT9=
EXTT10=
EXTT11=
EXTT12=
EXTT13=
EXTT14=
EXTT15=
EXTT16=
EXTT17=
PLAYORDER=
